<?xml version="1.0" encoding="UTF-8"?>
<svg version="1.1" viewBox="0 0 184.43 142.3" xml:space="preserve" xmlns="http://www.w3.org/2000/svg"><g transform="translate(24.555 -29.269)"><path d="m61.651 29.73c-8.412 1.1045-16.277 2.4735-24.077 6.0548-22.932 10.528-38.327 32.914-40.701 57.862-1.3542 14.23 1.9469 28.804 8.8795 41.275 1.6343 2.9401 3.5307 5.8367 5.6287 8.4667 0.82545 1.0347 1.7054 2.3425 3.174 2.29 9.7392-0.34822 19.952-3.9134 29.104-6.9643 23.489-7.8296 46.248-19.864 66.146-34.582 6.2805-4.6457 12.391-9.5144 18.256-14.677 2.1192-1.8656 5.6363-4.3193 6.8679-6.9202 0.75401-1.5923-0.78573-4.5394-1.3125-6.0854-2.0351-5.9729-5.0554-11.576-8.7705-16.669-14.033-19.237-38.671-33.27-63.195-30.05m68.527 17.462c-1.3577 0.17835-8.2068 0.0274-7.4091 2.2731 0.54741 1.5411 3.2623 4.9918 4.7872 5.6203 1.5911 0.6559 4.0959 0.1964 5.797 0.1964 7.02 0 19.615 0.55557 17.564 10.848-0.34689 1.7409-1.0991 3.4448-1.8903 5.0271-1.2494 2.4987-2.7874 4.873-4.4101 7.1438-2.1955 3.0722-4.642 6.0451-7.2962 8.7312-14.512 14.687-32.099 26.751-50.005 36.889-16.394 9.2825-33.885 17.398-52.123 22.337-10.281 2.7844-21.059 5.0671-31.75 5.0671-4.7131 0-9.8361-0.2047-14.023-2.6505-1.2481-0.72911-2.4232-1.5877-3.4147-2.645-5.471-5.8341 1.7339-15.679 5.2668-20.634 0.9519-1.335 2.3463-2.6976 2.949-4.2333 0.63478-1.6173-0.58013-9.6235-2.9453-8.4583-3.0301 1.4928-5.7899 6.3025-7.7137 8.9875-6.3402 8.8489-12.772 22.336-3.392 31.462 1.5423 1.5005 3.3752 2.7144 5.2813 3.6991 8.5376 4.4104 19.368 3.4392 28.575 2.3345 2.9272-0.35119 7.4971-2.3695 10.319-1.8059 1.9481 0.38905 4.1477 2.7379 5.8208 3.815 3.3145 2.1338 6.9482 3.7491 10.583 5.247 12.768 5.2609 28.077 6.5243 41.54 3.5551 24.739-5.4561 43.95-24.09 52.16-47.777 1.6176-4.6674 2.7763-9.8816 3.1146-14.817 0.15249-2.2246-0.53275-6.4632 0.56019-8.3911 1.6985-2.9962 5.5515-5.6833 7.8854-8.2776 8.2728-9.1959 20.172-25.155 9.8584-37.017-1.2935-1.4878-2.7652-2.6373-4.522-3.5288-2.7346-1.3877-5.6839-2.3591-8.7312-2.7696-3.9491-0.532-8.4736-0.7491-12.435-0.22866m-52.917 11.609c9.484-1.4014 12.145 12.99 2.6458 14.393-9.1544 1.3521-11.915-13.023-2.6458-14.393m-45.244 42.605c9.253-1.6225 11.615 12.113 2.3812 13.555-8.4159 1.3144-10.945-12.053-2.3812-13.555m62.177 35.206c5.5607-1.2097 7.706 7.2399 2.1167 8.5236-5.628 1.2926-7.7376-7.3008-2.1167-8.5236z" fill="#6e49b8"/></g></svg>
